<svg xmlns="http://www.w3.org/2000/svg" viewBox="0 0 27.96 25.07"><defs><style>.cls-1{fill:#5ac7e5;}</style></defs><title>Asset 95</title><g id="Layer_2" data-name="Layer 2"><g id="Layer_1-2" data-name="Layer 1"><path class="cls-1" d="M5.77,0c0,.74,0,1.44,0,2.14,0,.54.21.75.74.75H21.4c.6,0,.79-.19.79-.8s0-1.37,0-2c0,0,0,0,.06,0,1.08,0,2.18-.06,3.25,0A2.79,2.79,0,0,1,28,2.92q0,4.57,0,9.13,0,5,0,10a2.89,2.89,0,0,1-3,3H22.19c0-.11,0-.21,0-.3,0-.63,0-1.27,0-1.9a.61.61,0,0,0-.68-.69h-15a.62.62,0,0,0-.7.7c0,.71,0,1.43,0,2.19H2.91A2.88,2.88,0,0,1,0,22.18Q0,12.53,0,2.88A2.87,2.87,0,0,1,2.86,0C3.81,0,4.77,0,5.77,0ZM14,5.77H6.52c-.55,0-.76.21-.76.77q0,6,0,12c0,.6.19.8.79.8H21.45c.53,0,.74-.22.74-.75q0-6,0-12c0-.54-.21-.75-.75-.75Zm-12-2.88V4.81H3.84V2.89ZM24.11,4.81H26V2.89H24.11ZM1.92,10.6H3.84V8.68H1.92ZM26,10.6V8.68H24.12V10.6ZM3.84,16.39V14.47H1.92v1.92Zm20.27,0H26V14.48H24.11ZM1.93,20.25v1.92H3.84V20.25Zm24.11,0H24.12v1.92H26Z"/><path class="cls-1" d="M9.65,12.53q0-2,0-4.07c0-.65.42-.9,1-.61Q14.73,9.9,18.79,12a1.08,1.08,0,0,1,.45.45c.12.25,0,.5-.39.68l-4,2c-1.37.69-2.75,1.36-4.1,2.08a.68.68,0,0,1-1.07-.66C9.68,15.21,9.65,13.87,9.65,12.53Z"/></g></g></svg>