<svg xmlns="http://www.w3.org/2000/svg" viewBox="0 0 30.52 44"><defs><style>.cls-1{fill:#eee;}</style></defs><title>Asset 76</title><g id="Layer_2" data-name="Layer 2"><g id="Layer_1-2" data-name="Layer 1"><path class="cls-1" d="M21.32,29.24a15.23,15.23,0,0,1-13-27.52A15.09,15.09,0,0,1,28.08,7.14a14.44,14.44,0,0,1,1.84,12.15,15.46,15.46,0,0,1-7.83,9.57c.24.54.45,1.05.71,1.55a.58.58,0,0,0,.43.25,1.76,1.76,0,0,1,1.64,1.07q2.28,4.85,4.54,9.71a1.76,1.76,0,1,1-3.2,1.48q-2.27-4.82-4.52-9.65a1.83,1.83,0,0,1,.22-2,.71.71,0,0,0,.08-.57C21.79,30.2,21.55,29.74,21.32,29.24Zm-6.09-.48A13.34,13.34,0,0,0,28.75,15.29,13.34,13.34,0,0,0,15.25,1.74,13.34,13.34,0,0,0,1.72,15.21,13.34,13.34,0,0,0,15.22,28.76Z"/><path class="cls-1" d="M19,4.65l.47.17a11.48,11.48,0,0,1,5.39,4.56c0,.06.11.13.11.19,0,.21-.08.42-.12.63-.19-.06-.44-.06-.56-.19-.26-.29-.44-.65-.67-1a10.3,10.3,0,0,0-4.26-3.37,1.69,1.69,0,0,1-.5-.23A.66.66,0,0,1,18.66,5C18.69,4.83,18.92,4.74,19,4.65Z"/></g></g></svg>