<svg xmlns="http://www.w3.org/2000/svg" viewBox="0 0 31.71 43.6"><defs><style>.cls-1{fill:#33b5e5;}</style></defs><title>Asset 66</title><g id="Layer_2" data-name="Layer 2"><g id="Layer_1-2" data-name="Layer 1"><path class="cls-1" d="M5.18,39.06l.12-1.65h5.34L10.75,39H29.83V5.54h1.88V41h-21V43.6L8,41.65,5.26,43.57V41c-1,0-1.86,0-2.74,0A2.35,2.35,0,0,1,0,38.41Q0,20.52,0,2.63C0,1,.87,0,2.43,0Q15,0,27.53,0a2.46,2.46,0,0,1,.4.08V35.47H3.43c-1.54,0-1.54,0-1.54,1.55,0,.39,0,.77,0,1.16,0,.63.27.91.92.89S4.34,39.06,5.18,39.06ZM13,23.72H15V17.42h3.56V15.55H14.86V11.72H13v3.9H9.48v1.9H13Z"/></g></g></svg>