<svg xmlns="http://www.w3.org/2000/svg" viewBox="0 0 48.46 43.18"><defs><style>.cls-1{fill:#fff;}</style></defs><title>Asset 73</title><g id="Layer_2" data-name="Layer 2"><g id="Layer_1-2" data-name="Layer 1"><path class="cls-1" d="M0,.07c.59.37,1,.68,1.49.94a9.78,9.78,0,0,0,9.35.24c3.93-1.9,7.72-1.52,11.46.52A1.88,1.88,0,0,1,23.5,3.68c-.07,2.57-.05,5.15,0,7.73a1.25,1.25,0,0,1-1,1.41c-1.25.42-2.48.91-3.72,1.36A1.55,1.55,0,0,0,17.71,16c.08,4.37,0,8.73,0,13.09-1-.1-2-.27-3-.28a4.15,4.15,0,0,0-3.14,1.44A3.07,3.07,0,0,0,12.13,35a6.08,6.08,0,0,0,7.35-.58,3.39,3.39,0,0,0,1-2.67c0-4.74,0-9.49,0-14.23,0-1.12.25-1.79,1.39-2a14.36,14.36,0,0,0,1.71-.62V43.08c-1.7-.33-3.29-.58-4.85-1a18.9,18.9,0,0,0-9.12.28c-2,.51-4.1,1.14-6.19.51A7.88,7.88,0,0,1,.71,41.4,2.45,2.45,0,0,1,0,39.71Q0,20.29,0,.87C0,.67,0,.47,0,.07Z"/><path class="cls-1" d="M24.91,43.16c0-.45-.06-.81-.06-1.16,0-8.91,0-17.82,0-26.73a1.32,1.32,0,0,1,1-1.48c2.29-.83,4.55-1.75,6.82-2.64.34-.13.69-.23,1.14-.38V23.22A20.76,20.76,0,0,0,31,22.91c-2.27,0-4.13,1.69-4.15,3.55S28.7,30.08,31,30a9.29,9.29,0,0,0,3.23-.68,3.36,3.36,0,0,0,2.15-3.46c0-5.32,0-10.64,0-16,0-1.52-.58-2-2.05-1.48-2.66.9-5.29,1.88-7.94,2.83l-1.24.42c0-.43-.1-.71-.11-1,0-2.44,0-4.88,0-7.32a1.49,1.49,0,0,1,.86-1.46c3.76-2.16,7.6-2.64,11.63-.72A9.78,9.78,0,0,0,47.95.34,1.83,1.83,0,0,1,48.21.2s.06,0,.24,0c0,.34,0,.7,0,1.05q0,19,0,37.91A3.64,3.64,0,0,1,45.31,43a12.73,12.73,0,0,1-5.72-.33,20.15,20.15,0,0,0-7.21-.86c-2.11.28-4.19.72-6.28,1.1C25.74,42.95,25.39,43,24.91,43.16Z"/></g></g></svg>