<svg xmlns="http://www.w3.org/2000/svg" viewBox="0 0 38.31 38.31"><defs><style>.cls-1{fill:#fff;}</style></defs><title>Asset 91</title><g id="Layer_2" data-name="Layer 2"><g id="Layer_1-2" data-name="Layer 1"><path class="cls-1" d="M13.14,26.46h1.31c.63,0,1,.35,1,.9s-.39.93-1,.94H11.06A1,1,0,0,1,10,27.23q0-1.69,0-3.38a.92.92,0,0,1,.9-1c.56,0,.92.39.93,1,0,.4,0,.79,0,1.27l.36-.33,3.45-3.46c.09-.09.18-.19.27-.27a.92.92,0,0,1,1.28,0,.9.9,0,0,1,0,1.27c-.32.35-.66.67-1,1Z"/><path class="cls-1" d="M25,11.85H23.85a.92.92,0,0,1-1-.91c0-.56.39-.93,1-.93h3.43a.93.93,0,0,1,1,1q0,1.69,0,3.39c0,.67-.34,1.07-.9,1.08s-.93-.4-.94-1.08c0-.38,0-.76,0-1.23l-.41.38-3.61,3.6a.94.94,0,0,1-1.21.17.88.88,0,0,1-.36-1.05,1.66,1.66,0,0,1,.37-.51l3.81-3.82Z"/><path class="cls-1" d="M22.78,21.77a4.31,4.31,0,0,1-.59.75.77.77,0,0,1-.92,0,1.87,1.87,0,0,1-.32-.28l-4.88-4.88a2.11,2.11,0,0,1-.26-.29.91.91,0,0,1,1.26-1.27,1.81,1.81,0,0,1,.26.22c1.65,1.64,3.3,3.29,4.93,4.94A5.05,5.05,0,0,1,22.78,21.77Z"/><path class="cls-1" d="M19.15,38.31A19.15,19.15,0,1,1,38.31,19.15,19.18,19.18,0,0,1,19.15,38.31Zm0-37.15a18,18,0,1,0,18,18A18,18,0,0,0,19.15,1.16Z"/></g></g></svg>