<svg xmlns="http://www.w3.org/2000/svg" viewBox="0 0 185.05 9.6"><defs><style>.cls-1{fill:#eee;}.cls-2{fill:#c8c8c8;}.cls-3{fill:#959595;}.cls-4{fill:gray;}.cls-5{fill:#666;}</style></defs><title>Asset 80</title><g id="Layer_2" data-name="Layer 2"><g id="Layer_1-2" data-name="Layer 1"><path class="cls-1" d="M4.76,0A4.59,4.59,0,0,1,8.13,1.39,4.63,4.63,0,0,1,9.52,4.8,4.65,4.65,0,0,1,8.13,8.18,4.56,4.56,0,0,1,4.76,9.6,4.56,4.56,0,0,1,1.39,8.18,4.65,4.65,0,0,1,0,4.8,4.63,4.63,0,0,1,1.39,1.39,4.59,4.59,0,0,1,4.76,0Z"/><path class="cls-2" d="M48.64,0A4.59,4.59,0,0,1,52,1.39,4.63,4.63,0,0,1,53.4,4.8,4.65,4.65,0,0,1,52,8.18a4.72,4.72,0,0,1-6.73,0A4.65,4.65,0,0,1,43.88,4.8a4.63,4.63,0,0,1,1.39-3.41A4.59,4.59,0,0,1,48.64,0Z"/><path class="cls-3" d="M92.52,0a4.59,4.59,0,0,1,3.37,1.39A4.63,4.63,0,0,1,97.28,4.8a4.65,4.65,0,0,1-1.39,3.39,4.72,4.72,0,0,1-6.73,0A4.65,4.65,0,0,1,87.76,4.8a4.63,4.63,0,0,1,1.39-3.41A4.59,4.59,0,0,1,92.52,0Z"/><path class="cls-4" d="M136.41,0a4.59,4.59,0,0,1,3.37,1.39,4.63,4.63,0,0,1,1.39,3.41,4.65,4.65,0,0,1-1.39,3.39,4.72,4.72,0,0,1-6.73,0,4.65,4.65,0,0,1-1.39-3.39A4.63,4.63,0,0,1,133,1.39,4.59,4.59,0,0,1,136.41,0Z"/><path class="cls-5" d="M180.29,0a4.59,4.59,0,0,1,3.37,1.39A4.63,4.63,0,0,1,185,4.8a4.65,4.65,0,0,1-1.39,3.39,4.72,4.72,0,0,1-6.73,0,4.65,4.65,0,0,1-1.39-3.39,4.63,4.63,0,0,1,1.39-3.41A4.59,4.59,0,0,1,180.29,0Z"/></g></g></svg>