<svg xmlns="http://www.w3.org/2000/svg" viewBox="0 0 48.18 43.65"><defs><style>.cls-1{fill:#33b5e5;}</style></defs><title>Asset 64</title><g id="Layer_2" data-name="Layer 2"><g id="Layer_1-2" data-name="Layer 1"><path class="cls-1" d="M20.23,24.82c1.19.38,2.23.76,3.31,1A3.16,3.16,0,0,0,25,25.74c.86-.21,1.7-.49,2.71-.8,0,1.09,0,1.92,0,2.75q-.11,6.78-.24,13.56a2.88,2.88,0,0,1-.18,1.39c-.27.43-.81,1-1.24,1s-1-.5-1.25-.93a2.93,2.93,0,0,1-.18-1.38c-.1-3.1-.19-6.2-.3-9.29a13.09,13.09,0,0,0-.22-1.49h-.37a6.94,6.94,0,0,0-.15.87c-.15,3.42-.29,6.85-.44,10.27a2.33,2.33,0,0,1-.17,1.16,1.76,1.76,0,0,1-1.14.78,1.73,1.73,0,0,1-1.13-.79,2.51,2.51,0,0,1-.22-1.27q-.16-7.77-.3-15.53C20.15,25.68,20.19,25.36,20.23,24.82Z"/><path class="cls-1" d="M4,24.83c1.17.37,2.21.75,3.29,1a3.15,3.15,0,0,0,1.42-.11c.86-.21,1.7-.5,2.72-.81,0,1,0,1.84,0,2.63q-.12,6.62-.25,13.24A4.31,4.31,0,0,1,11,42.52c-.23.47-.81,1.06-1.24,1.06s-1-.57-1.29-1c-.2-.27-.11-.77-.12-1.17-.1-3.06-.18-6.13-.29-9.19,0-.57-.14-1.14-.21-1.71h-.4a7.74,7.74,0,0,0-.13.86c-.15,3.39-.28,6.78-.43,10.17a2.4,2.4,0,0,1-.15,1.17c-.28.39-.77.87-1.18.88s-.87-.49-1.17-.88a1.94,1.94,0,0,1-.18-1.06q-.16-7.88-.3-15.76C3.92,25.61,4,25.33,4,24.83Z"/><path class="cls-1" d="M43.93,24.92c0,.66,0,1,0,1.43q-.13,7.6-.27,15.2a2.31,2.31,0,0,1-.22,1.27,2,2,0,0,1-1.26.78,1.65,1.65,0,0,1-1.13-.8,3,3,0,0,1-.22-1.38c-.11-3.28-.2-6.56-.31-9.84a10,10,0,0,0-.15-1.07l-.38,0a7.75,7.75,0,0,0-.21,1.13c-.15,3.46-.29,6.92-.43,10.38,0,.15,0,.29,0,.44-.1.75-.49,1.23-1.28,1.22a1.17,1.17,0,0,1-1.23-1.26c-.09-2.48-.15-5-.21-7.43q-.11-4.37-.21-8.75c0-.39,0-.78,0-1.41,1.26.4,2.31.78,3.39,1a3.11,3.11,0,0,0,1.42-.09C42.05,25.54,42.89,25.24,43.93,24.92Z"/><path class="cls-1" d="M21.1,23.92a15.32,15.32,0,0,1-2.59.36,3.2,3.2,0,0,1-2-.61c-.31-.31,0-1.24.06-1.89a1.77,1.77,0,0,1,.27-.59c.84-1.54,2.13-2.91,1.65-4.63a23.66,23.66,0,0,1,11.4,0c-.56,1.84,1,3.19,1.72,4.84.33.76.83,1.53.14,2.34a2.15,2.15,0,0,1-2.32.51c-.89-.2-1.79-.33-2.67-.57-.63-.17-1.26-.6-1-1.31A1.77,1.77,0,0,1,27,21.54c1.93-.18,1.93-.13,1.93-2.13,0-.46,0-.93,0-1.54-1.35.26-2.57.44-3.75.76a1.26,1.26,0,0,0-.73.91c-.08,1.52,0,3.05,0,4.63,1.2-.07,2.37-.68,3.37.21-1.13.39-2.26.79-3.39,1.17a1.11,1.11,0,0,1-.64,0c-1.09-.35-2.18-.73-3.3-1.11l.61-.49,2.78.23c0-1.57,0-3.14,0-4.7a1,1,0,0,0-.52-.72c-1.21-.32-2.44-.55-3.72-.83a6,6,0,0,0-.08.73,9.83,9.83,0,0,0,.23,2.68c.09.26,1.21.09,1.82.27a1.34,1.34,0,0,1,.85.79,1.68,1.68,0,0,1-.48,1.1A2.6,2.6,0,0,1,21.1,23.92Z"/><path class="cls-1" d="M4.24,24.4c.67-.44.67-.44,3.32-.28,0-1.57,0-3.13,0-4.69a1,1,0,0,0-.6-.77c-1.18-.32-2.39-.53-3.72-.81,0,1.12-.05,2.06,0,3,0,.24.45.55.74.64s.9-.06,1.3.07.87.45.9.74-.24,1.08-.51,1.15a20.39,20.39,0,0,1-4.36.83c-1.14,0-1.58-.92-1.16-2A9.32,9.32,0,0,1,.77,21c.81-1.44,2.07-2.72,1.51-4.41a25.88,25.88,0,0,1,11.08-.26c0,.05.14.11.13.15-.19,1.72.68,3.06,1.55,4.41a2.25,2.25,0,0,1,.41.88c.07.65.3,1.56,0,1.9a2.9,2.9,0,0,1-2,.63,9.64,9.64,0,0,1-3-.64,1.78,1.78,0,0,1-.93-1.24c-.09-.76.63-.85,1.24-.89,2-.11,2-.11,2-2.08,0-.46,0-.93,0-1.57-1.36.27-2.58.46-3.76.77a1.15,1.15,0,0,0-.71.8c-.07,1.56,0,3.13,0,4.74,1.21-.11,2.37-.67,3.38.2-1.13.39-2.25.79-3.39,1.16a1.11,1.11,0,0,1-.64,0C6.44,25.15,5.35,24.78,4.24,24.4Z"/><path class="cls-1" d="M45.19,17.88c-1.33.25-2.53.4-3.67.73a1.46,1.46,0,0,0-.8,1.07c-.09,1.45,0,2.91,0,4.45,1.16,0,2.38-.69,3.35.26-1.11.38-2.22.77-3.34,1.14a.92.92,0,0,1-.53,0c-1.15-.37-2.3-.76-3.46-1.15,1-.94,2.18-.26,3.42-.2,0-1.61,0-3.2,0-4.79a1.16,1.16,0,0,0-.73-.77c-1.12-.31-2.26-.5-3.56-.77,0,1.11,0,2.08,0,3.05,0,.21.35.51.59.56.42.1.91-.07,1.3.07s.9.47,1,.8a1.28,1.28,0,0,1-.55,1.12,19.73,19.73,0,0,1-4.25.83c-1.23.05-1.7-.87-1.3-2a6.66,6.66,0,0,1,.44-1c.83-1.55,2.17-2.9,1.68-4.69a25.94,25.94,0,0,1,11.07-.27c0,.06.12.12.12.17a5.31,5.31,0,0,0,1.28,3.91A6.67,6.67,0,0,1,48,22.13a1.52,1.52,0,0,1-1.63,2.21,16.59,16.59,0,0,1-3.52-.73A1.71,1.71,0,0,1,42,22.37c-.05-.74.67-.83,1.28-.86,1.95-.11,1.95-.11,1.94-2.12C45.19,18.93,45.19,18.46,45.19,17.88Z"/><path class="cls-1" d="M34.91,14.05l1.09.51c-1.15.41-2.3.82-3.45,1.21a.91.91,0,0,1-.54,0c-1.16-.38-2.31-.77-3.49-1.17l.76-.5-2.15.3.7-2.52c.87,0,1.94-.56,2.63.4.24.33-.16,1.11-.29,1.84l1.7.35c0-1.71,0-3.31,0-4.9a1,1,0,0,0-.56-.68c-1.12-.3-2.26-.5-3.56-.78v2.66c-1.77-1.19-1-2.75-1-4a26.74,26.74,0,0,1,11.16,0c-.19,1.08.81,2.48-.77,3.72L37,8.06c-1.38.31-2.68.56-4,.91a1,1,0,0,0-.47.75c0,1.56,0,3.13,0,4.7l2.43-.34Z"/><path class="cls-1" d="M13.18,14.06l2.61.35c0-1.6,0-3.22,0-4.84a1,1,0,0,0-.57-.68c-1.16-.3-2.33-.52-3.66-.8v2.69C9.67,9.62,10.45,8,10.4,6.76a25.11,25.11,0,0,1,11.14.06c-.24,1,.89,2.45-.75,3.65l-.17-2.38c-1.26.26-2.44.46-3.57.78a1.17,1.17,0,0,0-.66.86c-.07,1.52,0,3.05,0,4.63l2.36-.29,0,0,1.28.63c-.7.13-1.21.19-1.7.33s-1.13.44-1.7.64a1.31,1.31,0,0,1-.73.13c-1.19-.37-2.35-.79-3.56-1.2l.9-.54Z"/><path class="cls-1" d="M32.21,0a2.77,2.77,0,0,1,2.7,2.75,2.76,2.76,0,1,1-5.51,0A2.77,2.77,0,0,1,32.21,0Z"/><path class="cls-1" d="M5,12.23a2.7,2.7,0,0,1,2.73-2.8,2.74,2.74,0,0,1,2.75,2.69A2.74,2.74,0,1,1,5,12.23Z"/><path class="cls-1" d="M21.26,12.2a2.78,2.78,0,0,1,2.67-2.78,2.82,2.82,0,0,1,2.84,2.73,2.84,2.84,0,0,1-2.69,2.79A2.79,2.79,0,0,1,21.26,12.2Z"/><path class="cls-1" d="M40.26,9.43a2.76,2.76,0,1,1,0,5.51,2.84,2.84,0,0,1-2.77-2.82A2.76,2.76,0,0,1,40.26,9.43Z"/><path class="cls-1" d="M13.16,2.77A2.75,2.75,0,0,1,15.83,0a2.79,2.79,0,0,1,2.83,2.73A2.83,2.83,0,0,1,16,5.51,2.78,2.78,0,0,1,13.16,2.77Z"/><path class="cls-1" d="M13.2,14l-2.31.36.67-2.46c1.45-.39,2.54-.24,2.76.44.32,1-.47,1.31-1.14,1.68Z"/><path class="cls-1" d="M34.93,14.06c-.25-.15-.58-.25-.72-.48a1.81,1.81,0,0,1-.35-1.15c.06-.27.54-.57.88-.62a10.89,10.89,0,0,1,1.8,0l.75,2.6-2.38-.34Z"/><path class="cls-1" d="M18.72,14.07c-.28-.17-.65-.28-.81-.52a1.5,1.5,0,0,1-.3-1.07,1.21,1.21,0,0,1,.85-.65,11.41,11.41,0,0,1,1.85,0L21,14.38l-2.33-.33Z"/></g></g></svg>