<svg xmlns="http://www.w3.org/2000/svg" viewBox="0 0 48.68 43.42"><defs><style>.cls-1{fill:#fff;}</style></defs><title>Asset 69</title><g id="Layer_2" data-name="Layer 2"><g id="Layer_1-2" data-name="Layer 1"><path class="cls-1" d="M48.68,24.48a1.85,1.85,0,0,1-2.09,1.39h-4.4v.63q0,7.46,0,14.93A1.74,1.74,0,0,1,41.58,43a2.07,2.07,0,0,1-1.08.4q-5.54,0-11.08,0a1.66,1.66,0,0,1-1.67-1.84q0-5.42,0-10.84c0-.19,0-.37,0-.59h-7.1c0,.18,0,.36,0,.54q0,5.35,0,10.7c0,1.44-.6,2-2.05,2H7.66c-1.39,0-2-.64-2-2q0-7.42,0-14.83v-.68H5c-1.2,0-2.41,0-3.61-.07A1.63,1.63,0,0,1,.34,23.17a3.92,3.92,0,0,1,.41-.46L23.51.63a1.71,1.71,0,0,1,2.67,0Q37.12,11.74,48,22.84a6,6,0,0,1,.64,1Z"/></g></g></svg>