<svg xmlns="http://www.w3.org/2000/svg" viewBox="0 0 29.92 29"><defs><style>.cls-1{fill:#5ac7e5;}</style></defs><title>Asset 98</title><g id="Layer_2" data-name="Layer 2"><g id="Layer_1-2" data-name="Layer 1"><path class="cls-1" d="M.45,26.6A2,2,0,0,1,1,25.14a.86.86,0,0,0,.11-.23,1.43,1.43,0,0,1,.12-.27,6.69,6.69,0,0,1,1.94-1.82c.69-.4,1.36-.83,2-1.22a4.53,4.53,0,0,1,.63-.2c.19-.07.37-.2.56-.26l2.61-.88h.06c.52-.1.51-.1.53-.64a2,2,0,0,0-.37-1.25,6.13,6.13,0,0,1-1-2.19c0-.24-.32-.42-.46-.65a6.13,6.13,0,0,1-.54-1,10.37,10.37,0,0,1-.48-1.67,3.37,3.37,0,0,1,0-1.86c.08-.22.21-.43.28-.65a1.58,1.58,0,0,0,.13-.59c0-.66-.14-1.31-.2-2a6.25,6.25,0,0,1,.42-3,2.93,2.93,0,0,1,.6-1,3,3,0,0,1,1.68-1c.1,0,.19-.14.28-.22s0,0,0-.06C10.34,2,10.49,1.37,11,1S12.14.44,12.7.14a.42.42,0,0,1,.17,0,14.4,14.4,0,0,1,2.07,0,34.72,34.72,0,0,0,3.52.08c.73,0,1.46-.09,2.19-.14.18,0,.23.08.22.23a2,2,0,0,1-.41,1.13c-.13.18-.12.27.06.4a5.62,5.62,0,0,1,2,2.65A7.18,7.18,0,0,1,23,7.29c0,.82-.14,1.63-.2,2.45a1.56,1.56,0,0,0,.1.48,1.75,1.75,0,0,0,.2.64A1.39,1.39,0,0,1,23.27,12a7.63,7.63,0,0,1-1.07,3.53,1.88,1.88,0,0,1-.33.39.73.73,0,0,0-.26.52,2.79,2.79,0,0,1-.36,1c-.24.46-.54.89-.8,1.34a1.51,1.51,0,0,0-.12.48,1.7,1.7,0,0,0,0,.3c0,.65,0,.63.63.81.89.26,1.77.54,2.65.83.14,0,.25.18.39.24s.26,0,.36.09a19.91,19.91,0,0,1,1.92,1,8.18,8.18,0,0,1,2.11,1.8c.07.1.34.17.14.39,0,0,.05.08.07.08.24,0,.25.17.3.33s.17.17.22.28a5.49,5.49,0,0,1,.65,2.75c0,.17,0,.45-.31.45-.18.59-.68.4-1.06.4H1.24a.92.92,0,0,1-1-.74,7.33,7.33,0,0,1,.12-1.6S.43,26.61.45,26.6ZM11.18,6.72A1.47,1.47,0,0,1,11,7c-.17.17-.38.3-.54.48a6,6,0,0,0-1.3,3.27.25.25,0,0,1-.15.15c-.55.18-.64.29-.62.85a8.39,8.39,0,0,0,.81,2.91.44.44,0,0,0,.24.22c.2.07.24.18.32.39a7.78,7.78,0,0,0,.93,2.2A7.26,7.26,0,0,0,12.15,19a4.34,4.34,0,0,0,4.89.48,5.89,5.89,0,0,0,2-1.75c.17-.23.43-.4.52-.7s.27-.44.35-.67a7.29,7.29,0,0,0,.21-.87,1,1,0,0,1,.48-.74.5.5,0,0,0,.19-.25c.15-.34.26-.69.42-1a4.34,4.34,0,0,0,.35-2,.54.54,0,0,0-.51-.61c-.24,0-.28-.12-.23-.34a2.93,2.93,0,0,0-.36-2.28,1,1,0,0,0-.88-.46c-.46,0-.92.1-1.38.11a5,5,0,0,1-1.07-.13c-.75-.16-1.5-.34-2.24-.55s-1.2-.46-1.83-.59a5.67,5.67,0,0,0-1.34,0C11.56,6.67,11.38,6.7,11.18,6.72Zm7.22,14a3.15,3.15,0,0,0-.3.15,6.45,6.45,0,0,1-2.44.85,5.87,5.87,0,0,1-2.43-.23,8.11,8.11,0,0,1-1.54-.7c-.17-.09-.23-.06-.33.09a4.79,4.79,0,0,1-.6.77c-.29.29-.33.39,0,.66a7.78,7.78,0,0,0,1.65,1.24,5.68,5.68,0,0,0,6.71-1.16c.14-.15.26-.32.35-.43Z"/><path class="cls-1" d="M2.24,16.73a2.55,2.55,0,0,1-.55-.36,6,6,0,0,1-.55-.79.35.35,0,0,1,0-.18c0-.1.07-.22-.14-.19,0,0-.1-.18-.15-.27A7.24,7.24,0,0,1,.29,9.49,8.34,8.34,0,0,1,1.53,6.9a.9.9,0,0,1,1.19-.32.82.82,0,0,1,.1,1.26,4.36,4.36,0,0,0-.75,1.31,6.13,6.13,0,0,0-.26,4.11A10,10,0,0,0,2.55,15c.11.23.32.41.43.64A.82.82,0,0,1,2.24,16.73Z"/><path class="cls-1" d="M29.92,11.61a7.53,7.53,0,0,1-1.54,4.56,1.5,1.5,0,0,1-.54.46.79.79,0,0,1-1-.84,2,2,0,0,1,.24-.51,11.79,11.79,0,0,0,.82-1.46,6.11,6.11,0,0,0,.16-4,6.3,6.3,0,0,0-.94-1.92c-.17-.24-.43-.51-.26-.9a.79.79,0,0,1,1.28-.3,3.25,3.25,0,0,1,.38.62s0,.08,0,.11a4,4,0,0,1,.9,1.71A8.21,8.21,0,0,1,29.92,11.61Z"/><path class="cls-1" d="M3.42,11.6A4.51,4.51,0,0,1,4,9.36.77.77,0,0,1,5.11,9a.78.78,0,0,1,.29,1.16,2.76,2.76,0,0,0,0,2.75c.3.57.23.89-.24,1.22a.77.77,0,0,1-1-.18A4.46,4.46,0,0,1,3.42,11.6Z"/><path class="cls-1" d="M26.14,13.13a1.26,1.26,0,0,1-.58,1,.79.79,0,0,1-1-.22.73.73,0,0,1-.09-.87,2.84,2.84,0,0,0,0-3A.77.77,0,0,1,24.86,9a.7.7,0,0,1,1,.28,6.77,6.77,0,0,1,.6,1.58,4,4,0,0,1-.11,2A1.59,1.59,0,0,1,26.14,13.13Z"/></g></g></svg>