<svg xmlns="http://www.w3.org/2000/svg" viewBox="0 0 61 61"><defs><style>.cls-1{fill:#e2e2e2;}.cls-2{fill:#afafaf;}</style></defs><title>Asset 89</title><g id="Layer_2" data-name="Layer 2"><g id="Layer_1-2" data-name="Layer 1"><circle class="cls-1" cx="30.5" cy="30.5" r="30.5"/><path class="cls-2" d="M31.32,8.72c.43.06.85.09,1.27.17A11.59,11.59,0,0,1,41.12,15,11.9,11.9,0,1,1,26.44,9.48a11.45,11.45,0,0,1,3.25-.72l.19,0ZM23.48,20.63a7.14,7.14,0,1,0,7.13-7.14A7.13,7.13,0,0,0,23.48,20.63Z"/><path class="cls-2" d="M47.38,51.61a6.15,6.15,0,0,1-.61-.15,2,2,0,0,1-1.23-1.11,24.29,24.29,0,0,0-2.07-3.72,16.12,16.12,0,0,0-5.91-5.37,14.49,14.49,0,0,0-5.43-1.53,14.91,14.91,0,0,0-8,1.47A17.87,17.87,0,0,0,18.18,46a17.15,17.15,0,0,0-2.53,4c0,.09-.08.17-.11.26A1.86,1.86,0,0,1,14,51.56l-.17,0h-.61a6.66,6.66,0,0,1-.82-.27,2.29,2.29,0,0,1-1.26-2.47,6,6,0,0,1,.58-1.69,22,22,0,0,1,6.74-8.47,18.68,18.68,0,0,1,8.33-3.52,24,24,0,0,1,6.71-.09,20.36,20.36,0,0,1,7.82,2.48,17.84,17.84,0,0,1,7.87,8.85,8,8,0,0,1,.6,2.27.44.44,0,0,0,0,.1v.83c0,.06,0,.12,0,.19a1.93,1.93,0,0,1-1.26,1.57,7.34,7.34,0,0,1-.8.21Z"/></g></g></svg>