<svg xmlns="http://www.w3.org/2000/svg" viewBox="0 0 77.79 69.8"><defs><style>.cls-1{fill:#b3b3b3;}</style></defs><title>Asset 79</title><g id="Layer_2" data-name="Layer 2"><g id="Layer_1-2" data-name="Layer 1"><path class="cls-1" d="M34.85,57.33h-2c-.38,0-.41,0-.41.39q0,1.13,0,2.25c0,.37,0,.39.41.39h4.08a.72.72,0,0,1,.28,0,.44.44,0,0,1,.2.2.73.73,0,0,1,0,.28q0,4.24,0,8.48a1,1,0,0,1,0,.28c0,.07-.09.17-.14.17a.39.39,0,0,1-.23-.1s-.05-.1-.07-.16a7.19,7.19,0,0,0-4.75-4.17A10.27,10.27,0,0,0,27.72,65c-1.37.18-2.73.43-4.09.66l-4.78.83-6.37,1.11-5.85,1-6,1a1.54,1.54,0,0,1-.35,0,.26.26,0,0,1-.22-.4.58.58,0,0,1,.08-.11L.27,69,12,57.23a.93.93,0,0,1,.54-.28l8-1.37,7.27-1.26a28.88,28.88,0,0,1,4.43-.49,7.93,7.93,0,0,1,3.38.53,2.71,2.71,0,0,1,1.71,2.53c0,.38,0,.44-.41.44Z"/><path class="cls-1" d="M40.42,69a6.72,6.72,0,0,1,1.25-3.92,17.61,17.61,0,0,1,2.07-2.61c.92-1,1.86-1.92,2.8-2.87,1.57-1.58,3.15-3.16,4.71-4.74a.61.61,0,0,1,.61-.2c1.43.26,2.86.5,4.29.75l6,1,3.19.56a.79.79,0,0,1,.3.15,2.21,2.21,0,0,1,.25.24L76.67,68.15l.94,1a.85.85,0,0,1,.14.16.26.26,0,0,1-.2.41.9.9,0,0,1-.24,0l-5-.86-6.83-1.17-5.47-1-6.34-1.09c-1-.18-2.05-.38-3.08-.52a10.94,10.94,0,0,0-5.38.45,7.28,7.28,0,0,0-3.8,3c-.18.29-.31.6-.47.91a.94.94,0,0,1-.1.22c-.06.06-.16.13-.22.12a.26.26,0,0,1-.15-.19A5.69,5.69,0,0,1,40.42,69Z"/><path class="cls-1" d="M45,2.77c0,.53,0,1.06,0,1.58A7.1,7.1,0,0,1,43.7,8.59,21.31,21.31,0,0,1,40.88,12q-7.22,7.26-14.45,14.51a26.09,26.09,0,0,0-3.93,4.9,11.31,11.31,0,0,0-1.68,5.2,2,2,0,0,1-.05.38c0,.06-.08.13-.13.14a.21.21,0,0,1-.17-.09,1.28,1.28,0,0,1-.13-.32A10.46,10.46,0,0,1,20,34.25a14.14,14.14,0,0,1,2.26-8,20.12,20.12,0,0,1,3-3.76q7.3-7.3,14.6-14.61c.72-.72,1.41-1.47,2.09-2.23A11.11,11.11,0,0,0,44.48.49a1.27,1.27,0,0,1,.11-.37A.29.29,0,0,1,44.81,0c.05,0,.12.1.14.17a1.16,1.16,0,0,1,0,.31Q45,1.63,45,2.77Z"/><path class="cls-1" d="M45,10.95c0,.61,0,1.22,0,1.83a6.48,6.48,0,0,1-.93,3.45,16.67,16.67,0,0,1-2.49,3.26c-1.08,1.14-2.19,2.26-3.3,3.37Q33.21,27.93,28.14,33a28.68,28.68,0,0,0-3.45,4.07A12.84,12.84,0,0,0,22.8,41a6.92,6.92,0,0,0,0,3.88c0,.14.15.32,0,.41s-.26-.1-.35-.22a8,8,0,0,1-1.57-4.41,10.43,10.43,0,0,1,1.07-4.82,22.13,22.13,0,0,1,3.74-5.46c.48-.54,1-1.06,1.5-1.58q6.5-6.51,13-13c.74-.75,1.44-1.54,2.11-2.35a10.8,10.8,0,0,0,2.17-4.68,1.86,1.86,0,0,1,.11-.4c0-.07.16-.17.2-.15a.4.4,0,0,1,.18.22.66.66,0,0,1,0,.24Q45,9.78,45,10.95Z"/><path class="cls-1" d="M45,19.19c0,.52,0,1,0,1.55A7.13,7.13,0,0,1,43.7,25a19.65,19.65,0,0,1-2.53,3.1q-5.79,5.83-11.59,11.64a14,14,0,0,0-2.14,2.69,9.48,9.48,0,0,0-1.28,3.33,5.62,5.62,0,0,0,.54,3.72,9.53,9.53,0,0,0,.64.92c.09.13.27.26.14.42s-.28,0-.42,0a5.84,5.84,0,0,1-2.54-2.54,7.83,7.83,0,0,1-.53-6,12,12,0,0,1,2.72-4.71c.26-.29.53-.57.8-.84q6.49-6.49,13-13c.64-.64,1.23-1.32,1.8-2a10.84,10.84,0,0,0,2.19-4.7,1.34,1.34,0,0,1,.08-.34.38.38,0,0,1,.22-.19c.13,0,.17.1.19.2a1.55,1.55,0,0,1,0,.28Q45,18,45,19.19Z"/><path class="cls-1" d="M40.4,54.53c0-.57,0-1.15,0-1.72A6.76,6.76,0,0,1,41.47,49a17.1,17.1,0,0,1,2.43-3.09c2.19-2.24,4.4-4.45,6.6-6.68a24.46,24.46,0,0,0,3.05-3.67,11.06,11.06,0,0,0,1.65-3.67A6.47,6.47,0,0,0,55,28.29,1.16,1.16,0,0,1,55,28a.79.79,0,0,1,.07-.25,2,2,0,0,1,.25.09s.06.07.09.11A7.36,7.36,0,0,1,57,32a10.5,10.5,0,0,1-1,5.18,19.38,19.38,0,0,1-3.62,5.33c-1.22,1.3-2.5,2.54-3.75,3.81s-2.77,2.77-4.13,4.18a21.2,21.2,0,0,0-1.53,1.79,10.92,10.92,0,0,0-2,4.45,1.84,1.84,0,0,1-.11.41.27.27,0,0,1-.21.13c-.06,0-.14-.1-.17-.18a.83.83,0,0,1,0-.28Q40.4,55.68,40.4,54.53Z"/><path class="cls-1" d="M40.42,46.28c0-.67,0-1.34,0-2a6.23,6.23,0,0,1,.82-3.09,15.65,15.65,0,0,1,2.6-3.44c1.64-1.7,3.32-3.38,5-5.06a12.86,12.86,0,0,0,2.27-3A7.21,7.21,0,0,0,52,26.28a5.09,5.09,0,0,0-1.28-3.41,4.51,4.51,0,0,1-.35-.4.73.73,0,0,1,0-.28c.09,0,.19-.05.26,0a5.54,5.54,0,0,1,.77.41,6.82,6.82,0,0,1,3,4.92,8,8,0,0,1-.81,4.57,12.47,12.47,0,0,1-2.48,3.47c-2,2-4.05,4-6.06,6.08-.67.67-1.3,1.38-1.91,2.11a10.88,10.88,0,0,0-2.26,4.82,1.26,1.26,0,0,1-.09.34.29.29,0,0,1-.21.14c-.06,0-.14-.1-.17-.18a.83.83,0,0,1,0-.28Q40.42,47.43,40.42,46.28Z"/><path class="cls-1" d="M41.42,57.3c.09-.16.15-.27.21-.37a16.2,16.2,0,0,1,2-2.59c1.72-1.78,3.47-3.53,5.2-5.3,1.23-1.26,2.48-2.5,3.68-3.78a22.17,22.17,0,0,0,3.16-4.17A9.78,9.78,0,0,0,57,36.37a1.25,1.25,0,0,1,0-.31c0-.07.08-.16.14-.17s.14.06.19.12a.69.69,0,0,1,.09.23,10.54,10.54,0,0,1,.37,4,15.72,15.72,0,0,1-3.76,8.59c-.47.58-1,1.13-1.52,1.66-1.13,1.15-2.27,2.27-3.4,3.41S47.06,56,46,57.08a.78.78,0,0,1-.62.25H41.85Z"/><path class="cls-1" d="M42.94,60.37c-.09.14-.13.23-.19.31a11.25,11.25,0,0,0-1.84,4.25,1.68,1.68,0,0,1-.09.37.28.28,0,0,1-.21.15c-.06,0-.15-.09-.18-.17a.9.9,0,0,1,0-.31q0-2.06,0-4.11a.7.7,0,0,1,0-.28c0-.08.13-.2.2-.21C41.37,60.37,42.13,60.37,42.94,60.37Z"/></g></g></svg>