<svg xmlns="http://www.w3.org/2000/svg" viewBox="0 0 33.48 33.48"><defs><style>.cls-1{fill:#cd0011;}.cls-2{fill:#fff;}</style></defs><title>Asset 90</title><g id="Layer_2" data-name="Layer 2"><g id="Layer_1-2" data-name="Layer 1"><circle class="cls-1" cx="16.74" cy="16.74" r="16.74"/><path class="cls-2" d="M13.7,19c-.71-.82-1.37-1.7-2.15-2.45A2.46,2.46,0,0,0,8,16.49a2.52,2.52,0,0,0-.07,3.66q3.44,3.55,7,7A2.38,2.38,0,0,0,18.61,27q3.5-3.39,6.88-6.88a2.5,2.5,0,0,0,0-3.65,2.54,2.54,0,0,0-3.66.1c-.39.35-.74.74-1.12,1.1s-.75.7-1.42,1.33c0-1.6,0-2.87,0-4.15,0-2.25,0-4.5,0-6.75a2.54,2.54,0,1,0-5.07,0c0,1.78,0,3.56,0,5.34s0,3.45,0,5.17Z"/></g></g></svg>