<svg xmlns="http://www.w3.org/2000/svg" viewBox="0 0 62.05 40.34"><defs><style>.cls-1{fill:#fff;}</style></defs><title>Asset 71</title><g id="Layer_2" data-name="Layer 2"><g id="Layer_1-2" data-name="Layer 1"><path class="cls-1" d="M31.08,7.17A20.3,20.3,0,0,1,44.53.2a32,32,0,0,1,6.07,0C53,.44,53,.54,53,3q0,11.42,0,22.84c0,.93,0,1.86,0,2.79.06,1.18-.27,1.6-1.59,1.5-6.84-.49-13.46.29-19.55,3.78a2,2,0,0,1-1.69-.06c-6-3.4-12.51-4.17-19.22-3.73-1.46.1-1.82-.26-1.81-1.63q.06-13.08,0-26.16C9.1.95,9.56.41,11,.24,18.73-.73,25.49,1.16,31.08,7.17Z"/><path class="cls-1" d="M55,33.05V5.27c2.1.43,3.28,1.49,3.28,3q0,13.34,0,26.67a9.11,9.11,0,0,1-.18,1.14c-7.89-3.71-15.88-4.43-24-1.46C40.71,31.14,47.65,31.1,55,33.05Z"/><path class="cls-1" d="M7.07,5.11V32.66c3.62-.32,7-.83,10.38-.87a20.65,20.65,0,0,1,9.89,2.49A30.46,30.46,0,0,0,3.91,36.14c-.07-.91-.15-1.51-.15-2.1q0-12.37,0-24.73C3.78,6.81,4.12,6.35,7.07,5.11Z"/><path class="cls-1" d="M61.92,39.9C57,38.54,52.25,36.74,47.32,36s-9.9-.47-14.67-.63a82.61,82.61,0,0,1,8.79-1.13,43.87,43.87,0,0,1,9.17.68,95.86,95.86,0,0,1,9.32,2.67V8.71c1.45.18,2.12.7,2.12,1.9Q62,25,62,39.38A1.88,1.88,0,0,1,61.92,39.9Z"/><path class="cls-1" d="M.16,40.34C.1,39.55,0,39.06,0,38.56c0-9.12,0-18.25,0-27.37A2.14,2.14,0,0,1,1.95,8.67V37.29c4.78-1.08,9.22-2.37,13.76-3s9.19.16,13.72,1.44C19.23,34.08,9.65,36.32.16,40.34Z"/></g></g></svg>