<svg xmlns="http://www.w3.org/2000/svg" viewBox="0 0 42.7 43.29"><defs><style>.cls-1{fill:#3c4751;}.cls-2{fill:#2f7abf;}</style></defs><title>Asset 99</title><g id="Layer_2" data-name="Layer 2"><g id="Layer_1-2" data-name="Layer 1"><path class="cls-1" d="M9.4,34.19c0,1.28,0,2.49,0,3.7,0,.62,0,1.23,0,1.85a.72.72,0,0,0,.26.52c.1.06.38-.07.5-.2q2.77-2.74,5.5-5.5a1.17,1.17,0,0,1,.92-.38H31.68A1.91,1.91,0,0,0,33.88,32q0-7,0-14.07a1,1,0,0,1,.32-.76c.59-.57,1.16-1.16,1.74-1.74l.39-.35c0,.31,0,.52,0,.73q0,8.44,0,16.89a3.62,3.62,0,0,1-2.88,3.61,5,5,0,0,1-1,.08q-6.93,0-13.85,0a1.13,1.13,0,0,0-.88.37c-1.83,1.85-3.67,3.71-5.53,5.53a3.32,3.32,0,0,1-5.55-1.47,4,4,0,0,1-.13-1c0-1,0-1.93,0-2.9,0-.16,0-.31,0-.53-.82,0-1.6,0-2.37,0a6.38,6.38,0,0,1-1.35-.13A3.58,3.58,0,0,1,0,32.81q0-9.63,0-19.26a3.62,3.62,0,0,1,3.82-3.8H24.25a12.47,12.47,0,0,0-1.14,1.17A2.85,2.85,0,0,1,20.49,12C15.19,12,9.88,12,4.58,12a2,2,0,0,0-2.15,2.14c0,6,0,12,0,18a2,2,0,0,0,.45,1.39,1.92,1.92,0,0,0,1.52.66h5Z"/><path class="cls-2" d="M31.81,4.16c.44-.41.94-.86,1.42-1.33C34.07,2,34.9,1.16,35.74.32c.43-.43.65-.43,1.07,0l5.53,5.53c.48.48.48.62,0,1.11l-3.9,3.88Z"/><path class="cls-2" d="M37.72,11.45l-12,12L24,21.78l.34-.36L35.51,10.2c.47-.47.47-.48.94,0Z"/><path class="cls-2" d="M31.31,5c.45.46,1,1,1.49,1.57,0,.05,0,.31-.15.41-1.28,1.31-2.58,2.6-3.87,3.9l-7.48,7.5a3.7,3.7,0,0,0-.31.41L19.29,17Z"/><path class="cls-2" d="M18.14,28.07H29.7c.43,0,.8.07.94.54s-.24,1-.87,1h-23a3.28,3.28,0,0,1-.4,0,.74.74,0,0,1-.71-.79.69.69,0,0,1,.78-.7H18.14Z"/><path class="cls-2" d="M18.61,17.77l6.34,6.33-3.5.71-3.35.67c-.79.16-1-.1-.87-.9.43-2.13.85-4.27,1.28-6.41C18.53,18,18.58,17.91,18.61,17.77Z"/><path class="cls-2" d="M17.15,17.3a10.79,10.79,0,0,1-.26,1.25c0,.11-.3.2-.46.2-1.26,0-2.52,0-3.78,0H6.58c-.63,0-.9-.21-.91-.69s.31-.8.89-.8H16.92Z"/><path class="cls-2" d="M11.08,22.68c1.49,0,3,0,4.48,0,.39,0,.52.07.42.5-.26,1.12,0,1-1.18,1H6.59c-.63,0-.91-.22-.92-.69a.68.68,0,0,1,.76-.76c.91,0,1.82,0,2.72,0h1.93Z"/></g></g></svg>